<svg width="151" height="110" viewBox="0 0 151 110" fill="none" xmlns="http://www.w3.org/2000/svg">
<g id="Frame">
<g id="Clip path group">
<mask id="mask0_114_2524" style="mask-type:luminance" maskUnits="userSpaceOnUse" x="20" y="0" width="111" height="110">
<g id="__lottie_element_7">
<path id="Vector" d="M130.656 0H20.6562V110H130.656V0Z" fill="white"/>
</g>
</mask>
<g mask="url(#mask0_114_2524)">
<g id="Group">
<g id="Group_2">
<g id="Group_3">
<path id="Vector_2" d="M28.1474 99.1478C38.2538 97.593 63.3175 88.6995 82.7217 65.5636C102.126 42.4279 108.479 16.3821 108.945 7.20874" stroke="#F86642" stroke-width="1.925" stroke-linecap="round" stroke-linejoin="round"/>
</g>
<g id="Group_4">
<path id="Vector_3" d="M91.5842 17.5197L109.309 6.32495L120.504 22.6506" stroke="#F86642" stroke-width="1.925" stroke-linecap="round" stroke-linejoin="round"/>
</g>
<g id="Group_5">
<path id="Vector_4" d="M54.719 22.8074C60.8824 22.8074 65.8788 27.8038 65.8788 33.9672C65.8788 40.1305 60.8824 45.127 54.719 45.127C48.5556 45.127 43.5592 40.1305 43.5592 33.9672C43.5592 27.8038 48.5556 22.8074 54.719 22.8074Z" stroke="#F86642" stroke-width="1.77138" stroke-linecap="round" stroke-linejoin="round"/>
</g>
<g id="Group_6">
<g id="Group_7">
<path id="Vector_5" d="M105.52 97.9241L116.974 78.1224" stroke="#F86642" stroke-width="1.46527" stroke-linecap="round" stroke-linejoin="round"/>
</g>
<g id="Group_8">
<path id="Vector_6" d="M100.882 83.1864L121.694 92.8338" stroke="#F86642" stroke-width="1.46527" stroke-linecap="round" stroke-linejoin="round"/>
</g>
</g>
</g>
</g>
</g>
</g>
</g>
</svg>
