<svg width="151" height="130" viewBox="0 0 151 130" fill="none" xmlns="http://www.w3.org/2000/svg">
<g id="Frame">
<g id="Clip path group">
<mask id="mask0_114_2545" style="mask-type:luminance" maskUnits="userSpaceOnUse" x="10" y="0" width="131" height="130">
<g id="__lottie_element_2">
<path id="Vector" d="M140.984 0H10.9844V130H140.984V0Z" fill="white"/>
</g>
</mask>
<g mask="url(#mask0_114_2545)">
<g id="Group">
<g id="Group_2">
<g id="Group_3">
<path id="Vector_2" d="M65.5922 118.597C65.189 118.516 64.8171 118.281 64.5697 117.909L23.1514 55.6657C22.9109 55.3043 22.8235 54.8597 22.9093 54.4314C22.9951 54.0031 23.2466 53.6264 23.6082 53.3858L85.8078 11.9014C86.553 11.405 87.5521 11.6079 88.0436 12.3553L128.933 74.493C129.427 75.2433 129.224 76.2592 128.479 76.7613L66.8078 118.352C66.4358 118.603 65.9977 118.678 65.5922 118.597ZM26.75 55.2008L66.3611 114.729L125.342 74.9532L86.2359 15.5264L26.75 55.2008Z" fill="#FF734F"/>
</g>
<g id="Group_4">
<path id="Vector_3" d="M50.0674 112.623C49.787 112.624 49.5092 112.552 49.2618 112.409C48.889 112.194 48.6154 111.839 48.5019 111.421L28.8436 38.9619C28.73 38.5419 28.7861 38.0931 29.0007 37.715C29.215 37.3368 29.5699 37.0614 29.9862 36.9487L101.63 17.6177C102.488 17.3868 103.37 17.8971 103.606 18.7628L123.263 90.6759C123.377 91.0949 123.322 91.5422 123.11 91.9197C122.898 92.2973 122.546 92.5739 122.132 92.6888L50.4899 112.565C50.3509 112.604 50.2093 112.623 50.0674 112.623ZM32.3944 39.6845L51.1936 108.977L119.713 89.9667L100.915 21.1958L32.3944 39.6845Z" fill="#FF734F"/>
</g>
<g id="Group_5">
<path id="Vector_4" d="M76.3238 85.8143C75.9173 85.8143 75.5102 85.6605 75.1964 85.3514L55.7864 66.2658C55.473 65.9577 55.2962 65.5343 55.2962 65.0927C55.2962 64.6508 55.473 64.2278 55.7864 63.9196L75.1964 44.8341C75.83 44.2098 76.8425 44.2178 77.4675 44.8504L96.3383 63.9362C96.9703 64.5748 96.9703 65.6109 96.3383 66.2495L77.4675 85.3351C77.1519 85.6546 76.7379 85.8143 76.3238 85.8143ZM59.2344 65.0928L76.3082 81.881L92.9078 65.0928L76.3082 48.3045L59.2344 65.0928Z" fill="#FF734F"/>
</g>
</g>
</g>
</g>
</g>
</g>
</svg>
