<svg width="151" height="130" viewBox="0 0 151 130" fill="none" xmlns="http://www.w3.org/2000/svg">
<g id="Frame">
<g id="Clip path group">
<mask id="mask0_114_2561" style="mask-type:luminance" maskUnits="userSpaceOnUse" x="10" y="0" width="131" height="130">
<g id="__lottie_element_12">
<path id="Vector" d="M140.328 0H10.3281V130H140.328V0Z" fill="white"/>
</g>
</mask>
<g mask="url(#mask0_114_2561)">
<g id="Group">
<g id="Group_2">
<g id="Group_3">
<path id="Vector_2" d="M93.7412 97.1462L85.5981 93.469C85.0985 93.2433 84.5104 93.4659 84.2849 93.9654C84.0593 94.465 84.2814 95.0527 84.7813 95.2784L90.556 97.886C89.9457 98.0566 89.2321 98.2429 88.4291 98.4303C85.5657 99.0978 81.576 99.7776 77.068 99.8286C68.0517 99.9298 57.0554 97.5226 48.7579 87.5779C40.4385 77.6075 39.7291 66.9734 41.1078 58.7849C41.7983 54.6846 43.0124 51.2064 44.0543 48.7537C44.5748 47.5284 45.0511 46.5622 45.3951 45.9057C45.5671 45.5776 45.7058 45.3271 45.8004 45.1607C45.8477 45.0775 45.884 45.0152 45.9077 44.9749C45.9196 44.9547 45.9285 44.94 45.9339 44.9307C45.9367 44.9262 45.9386 44.923 45.9396 44.9212C45.9402 44.9203 45.9406 44.9198 45.9407 44.9196C45.9406 44.9198 45.9404 44.92 45.0927 44.4034C44.245 43.8868 44.2446 43.8874 44.2443 43.8879C44.2442 43.8882 44.2437 43.8889 44.2434 43.8895C44.2426 43.8907 44.2417 43.8922 44.2405 43.8943C44.2382 43.8981 44.235 43.9034 44.231 43.9101C44.2229 43.9235 44.2116 43.9423 44.1972 43.9669C44.1682 44.016 44.1267 44.0873 44.0742 44.1798C43.9691 44.3647 43.8195 44.6349 43.6364 44.9842C43.2705 45.6824 42.7706 46.6972 42.2268 47.9774C41.1401 50.5357 39.8722 54.1657 39.15 58.4553C37.7034 67.0464 38.4455 78.3175 47.2334 88.8501C56.0432 99.4085 67.7152 101.92 77.0905 101.814C81.7784 101.761 85.9152 101.055 88.88 100.364C89.9022 100.125 90.7867 99.8881 91.5081 99.6793L88.7511 105.785C88.5253 106.285 88.747 106.873 89.2474 107.098C89.747 107.324 90.3347 107.102 90.5603 106.603L94.2375 98.4593C94.4626 97.9597 94.2408 97.3719 93.7412 97.1462Z" fill="#F86642"/>
</g>
<g id="Group_4">
<path id="Vector_3" d="M111.891 69.0017C112.959 60.3553 111.723 49.1274 102.481 38.991C93.2165 28.8296 81.4453 26.8336 72.0838 27.3508C67.4029 27.6095 63.3006 28.4961 60.3694 29.317C59.3586 29.6001 58.4856 29.8757 57.774 30.116L60.2602 23.8953C60.4637 23.3862 60.216 22.8085 59.7069 22.605C59.1978 22.4015 58.62 22.6493 58.4165 23.1584L55.1007 31.4548C54.8973 31.964 55.1451 32.5416 55.6542 32.7451L63.9507 36.0609C64.4597 36.2644 65.0373 36.0166 65.2409 35.5075C65.4443 34.9985 65.1965 34.4207 64.6875 34.2173L58.804 31.8659C59.4062 31.6686 60.1107 31.4513 60.9048 31.2289C63.7361 30.436 67.6921 29.582 72.1934 29.3332C81.1967 28.8358 92.288 30.7582 101.014 40.3288C109.764 49.9247 110.939 60.5172 109.921 68.7583C109.411 72.885 108.351 76.4131 107.418 78.9092C106.951 80.1561 106.518 81.1421 106.203 81.8133C106.046 82.1485 105.918 82.4048 105.831 82.5753C105.787 82.6607 105.754 82.7241 105.732 82.766C105.721 82.7864 105.713 82.8018 105.708 82.811C105.705 82.8159 105.703 82.8189 105.702 82.8208C105.702 82.8214 105.701 82.8219 105.701 82.8226C105.701 82.8219 105.702 82.8219 106.571 83.3005C107.441 83.7799 107.441 83.7795 107.441 83.7788C107.442 83.7782 107.442 83.7774 107.442 83.7769C107.443 83.7755 107.444 83.7745 107.445 83.772C107.447 83.7683 107.45 83.7628 107.454 83.756C107.461 83.7425 107.472 83.7226 107.485 83.6975C107.512 83.6476 107.55 83.5742 107.599 83.4797C107.696 83.29 107.833 83.0138 108.001 82.6568C108.336 81.9435 108.79 80.9073 109.277 79.6044C110.25 77.001 111.358 73.3186 111.891 69.0017Z" fill="#F86642"/>
</g>
</g>
</g>
</g>
</g>
</g>
</svg>
